<svg xmlns="http://www.w3.org/2000/svg" viewBox="0 0 120 120" role="img" aria-label="E2 Widget">
  <defs>
    <linearGradient id="g1" x1="0" y1="0" x2="1" y2="1">
      <stop offset="0%" stop-color="#eef2ff"/>
      <stop offset="100%" stop-color="#c7d2fe"/>
    </linearGradient>
  </defs>
  <rect x="2" y="2" width="116" height="116" rx="14" fill="#1f2937" stroke="#94a3b8"/>
  <rect x="12" y="12" width="96" height="54" rx="8" fill="url(#g1)"/>
  <rect x="20" y="22" width="80" height="26" rx="4" fill="#334155"/>
  <text x="60" y="40" text-anchor="middle" font-family="Segoe UI, Arial" font-size="20" font-weight="700" fill="#93c5fd">E2</text>
  <rect x="14" y="72" width="92" height="34" rx="6" fill="#0f172a"/>
  <g fill="#94a3b8">
    <rect x="20" y="78" width="10" height="5" rx="1"/><rect x="34" y="78" width="10" height="5" rx="1"/><rect x="48" y="78" width="10" height="5" rx="1"/><rect x="62" y="78" width="10" height="5" rx="1"/><rect x="76" y="78" width="10" height="5" rx="1"/>
    <rect x="20" y="86" width="10" height="5" rx="1"/><rect x="34" y="86" width="10" height="5" rx="1"/><rect x="48" y="86" width="10" height="5" rx="1"/><rect x="62" y="86" width="10" height="5" rx="1"/><rect x="76" y="86" width="10" height="5" rx="1"/>
    <rect x="20" y="94" width="10" height="5" rx="1"/><rect x="34" y="94" width="10" height="5" rx="1"/><rect x="48" y="94" width="10" height="5" rx="1"/><rect x="62" y="94" width="10" height="5" rx="1"/><rect x="76" y="94" width="10" height="5" rx="1"/>
  </g>
</svg>
